<svg id="Layer_1" height="512" viewBox="0 0 512 512" width="512" xmlns="http://www.w3.org/2000/svg" data-name="Layer 1"><path d="m445.413 333.052-71.845 39.391a47.364 47.364 0 0 0 -44.66-32.379h-55.453a59.329 59.329 0 0 1 -26.051-6.075l-5.719-2.813a96.58 96.58 0 0 0 -101.954 10.124c-.131.1-.258.206-.38.316l-13.807 12.5a49.2 49.2 0 0 1 -19.532 10.784 6.006 6.006 0 0 0 -4.546-1.336l-53.33 6.721a6 6 0 0 0 -5.236 6.315l6.9 116.4a6 6 0 0 0 5.99 5.646 5.921 5.921 0 0 0 .784-.052l80.108-10.56a6 6 0 0 0 5.057-7.321l-.248-1.055 41.426-26.644a24.42 24.42 0 0 1 18.083-2.392l83.739 15.7a106.09 106.09 0 0 0 66.576-9.56l144.912-101.154a6 6 0 0 0 1.728-7.974 39.026 39.026 0 0 0 -52.542-14.582zm-384.022 152.797-6.183-104.358 42.731-5.385 30.5 100.905zm288.69-42.79a56.829 56.829 0 0 1 -11.333 6.22 94.039 94.039 0 0 1 -51.818 5.244l-83.156-15.578a36.375 36.375 0 0 0 -26.933 3.709c-.094.054-.187.11-.278.169l-38.447 24.727-27.643-91.45a61.413 61.413 0 0 0 23.127-13.084l13.62-12.336a84.651 84.651 0 0 1 89.168-8.737l5.718 2.814a71.4 71.4 0 0 0 31.349 7.307h55.453c17.317 0 31.756 12.813 34.686 29.637l-40.482-1.863a236.05 236.05 0 0 0 -43.55 2.03 6.12 6.12 0 0 0 -5.334 6.032 6 6 0 0 0 6.838 5.874 224.583 224.583 0 0 1 41.494-1.949l47.3 2.178c.147.006.293.008.442 0a5.862 5.862 0 0 0 2.1-.44 6.012 6.012 0 0 0 3.73-5.558c0-1.1-.05-2.183-.122-3.263l75.173-41.176a26.991 26.991 0 0 1 33.159 5.7z"/><path d="m92.792 285.818h-.02a6 6 0 0 0 -.019 12l5.859.019h.019a6 6 0 0 0 .019-12z"/><path d="m114.484 297.888 40.972.193h.028a6 6 0 0 0 .028-12l-40.971-.193h-.029a6 6 0 0 0 -.028 12z"/><path d="m137.271 269.31h.02a6 6 0 0 0 .019-12l-5.857-.02h-.021a6 6 0 0 0 -.019 12z"/><path d="m115.551 269.239a6 6 0 0 0 .035-12l-32.353-.192h-.033a6 6 0 0 0 -.034 12l32.353.192z"/><path d="m431.87 420.048-13.076 9.221a6 6 0 1 0 6.916 9.806l13.076-9.221a6 6 0 0 0 -6.916-9.806z"/><path d="m379.566 456.932-13.075 9.22a6 6 0 1 0 6.916 9.807l13.075-9.221a6 6 0 1 0 -6.916-9.806z"/><path d="m458.021 401.606-13.076 9.221a6 6 0 1 0 6.916 9.807l13.076-9.221a6 6 0 0 0 -6.916-9.807z"/><path d="m405.719 438.49-13.076 9.221a6 6 0 1 0 6.915 9.807l13.076-9.221a6 6 0 1 0 -6.915-9.807z"/><path d="m484.173 383.165-13.073 9.221a6 6 0 1 0 6.915 9.806l13.076-9.22a6 6 0 1 0 -6.915-9.807z"/><path d="m343.383 81.075a6 6 0 0 0 -7.683 3.595l-3.948 10.885a6 6 0 1 0 11.281 4.091l3.948-10.884a6 6 0 0 0 -3.598-7.687z"/><path d="m352.878 72.493 15.386-42.425a6 6 0 1 0 -11.281-4.091l-15.383 42.423a6 6 0 1 0 11.281 4.092z"/><path d="m390.848 42.822-15.158 41.8a6 6 0 1 0 11.281 4.092l15.158-41.8a6 6 0 0 0 -11.281-4.092z"/><path d="m400.519 33.754a5.994 5.994 0 0 0 7.686-3.595l3.175-8.753a6 6 0 0 0 -11.28-4.091l-3.175 8.752a6 6 0 0 0 3.594 7.687z"/><path d="m406.035 128.768a6 6 0 0 0 7.687-3.595l3.947-10.884a6 6 0 0 0 -11.281-4.092l-3.948 10.884a6 6 0 0 0 3.595 7.687z"/><path d="m423.569 98.02 15.386-42.42a6 6 0 1 0 -11.281-4.1l-15.386 42.428a6 6 0 1 0 11.281 4.092z"/><path d="m48.4 144.584a6 6 0 0 0 5.646-3.97l2.472-6.871 47.437 21.368a103.011 103.011 0 0 0 43.269 11.148l11.047.355a26.578 26.578 0 0 0 -6.986 23.1 11.794 11.794 0 0 0 15.623 8.964c.126-.046.251-.1.374-.15l17.888-7.87-6.1 16.82a25.2 25.2 0 0 0 15.13 32.292l220.849 79.749a25.2 25.2 0 0 0 32.251-15.111l38.038-104.887a25.2 25.2 0 0 0 -15.138-32.293l-212.135-76.6-41.78-42.884a26.708 26.708 0 0 0 -27.885-7.99c-44.39 13.584-85.917 13.285-102.553 12.446l1.648-4.58a6 6 0 0 0 -4.213-7.856l-51.57-12.688a6 6 0 0 0 -7.365 4.924l-14.279 93.748a6 6 0 0 0 3.858 6.533l32.4 11.933a5.992 5.992 0 0 0 2.074.37zm114.642 42.7a14.536 14.536 0 0 1 5.923-14.135l7.827-5.554a90.536 90.536 0 0 1 13.184 2.643l2.36.66-1.508 4.16zm82.239-88.515 220.849 79.749a13.2 13.2 0 0 1 7.926 16.915l-38.04 104.883a13.219 13.219 0 0 1 -16.893 7.915l-220.848-79.749a13.2 13.2 0 0 1 -7.926-16.915l13.575-37.432 7.614 2.128-1.416 3.8a7.392 7.392 0 0 0 4.584 9.371l.081.028c11.279 4.211 15.25 9.558 9.009 29.963a7.286 7.286 0 0 0 4.244 9.032l162.579 60.481a6.807 6.807 0 0 0 2.382.428 7.437 7.437 0 0 0 6.728-4.485c7-15.8 12.494-21.967 26.517-16.754.035.014.073.027.111.041a7.392 7.392 0 0 0 9.5-4.124l15.63-41.906a6.968 6.968 0 0 0 -.215-5.369 7.789 7.789 0 0 0 -4.292-3.975c-.031-.013-.062-.024-.093-.035-15.248-5.673-14.831-12.163-9.924-27.921a7.665 7.665 0 0 0 -4.9-9.286l-161.156-59.952a7.663 7.663 0 0 0 -9.735 3.828c-6.306 14.429-11.082 19.573-22.986 16.25l-18.148-5.978 8.349-23.022a13.217 13.217 0 0 1 16.892-7.912zm24.407 55.424a22.807 22.807 0 0 0 -9.88-10.971c4.542-3.833 7.819-9.287 10.557-15.022l153.873 57.24c-3.453 11.955-5.785 27.464 14.378 36.861l-12.391 33.224c-21.151-5.676-30.472 9.443-35.7 20.575l-154.025-57.3c3.341-11.833 6.2-29.356-13.519-38.88l.155-.414 19 5.311a22.734 22.734 0 0 0 27.546-30.626zm-77.78-102.964a14.7 14.7 0 0 1 15.421 4.5c.079.091.161.181.246.267l29.494 30.273a25.227 25.227 0 0 0 -19.963 16.324l-2.884 7.953a111.665 111.665 0 0 1 -30.764-.147l-2.334-3.387a6 6 0 1 0 -9.88 6.808l3.8 5.512a38.492 38.492 0 0 0 19.556 14.631l57.84 19.037a10.713 10.713 0 0 1 6.111 14.458 10.789 10.789 0 0 1 -12.976 5.862l-.14-.041-52.231-14.6a102.59 102.59 0 0 0 -24.271-3.728l-21.325-.686a90.943 90.943 0 0 1 -38.318-9.9c-.09-.047-.182-.09-.273-.132l-48.427-21.816 21.016-58.429c14.547 1.036 60.104 2.604 110.302-12.759zm17.753 71.89-1.027 2.831-7.376-2.428c3.124-.045 5.949-.2 8.403-.403zm-186.992-.405 12.553-82.414 38.727 9.524-29.149 81.04z"/><path d="m317.828 220.542a6 6 0 0 0 11.139 4.034 14.488 14.488 0 0 0 11.961-20.576 14.266 14.266 0 0 0 -8.122-7.416 2.344 2.344 0 0 1 -1.332-1.22 2.474 2.474 0 0 1 3.022-3.391 2.368 2.368 0 0 1 1.454 1.535 6 6 0 0 0 11.46-3.561 14.32 14.32 0 0 0 -4.035-6.344 5.993 5.993 0 0 0 -11.34-3.656 14.473 14.473 0 0 0 -11.428 20.508 14.263 14.263 0 0 0 8.122 7.416 2.344 2.344 0 0 1 1.332 1.22 2.474 2.474 0 0 1 -3.022 3.391 2.368 2.368 0 0 1 -1.454-1.535 6 6 0 0 0 -11.459 3.561 14.329 14.329 0 0 0 3.702 6.034z"/><path d="m316.124 242.629a41.318 41.318 0 0 0 14.06 2.469 42.1 42.1 0 0 0 38.04-59.914 41.27 41.27 0 0 0 -23.5-21.461 42.043 42.043 0 0 0 -52.1 57.445 41.278 41.278 0 0 0 23.5 21.461zm-13.648-49.536a30.06 30.06 0 0 1 28.174-19.839 29.512 29.512 0 0 1 26.708 17.021 30.043 30.043 0 0 1 -37.158 41.067 29.351 29.351 0 0 1 -16.71-15.266 29.83 29.83 0 0 1 -1.014-22.983z"/><path d="m183.549 75.24a5.98 5.98 0 0 0 1.551-.2c2.1-.56 4.222-1.152 6.3-1.757a6 6 0 0 0 -3.357-11.521c-1.989.58-4.02 1.146-6.035 1.684a6 6 0 0 0 1.543 11.8z"/><path d="m109.509 85.493h.128a327.819 327.819 0 0 0 56.273-6.023 6 6 0 0 0 -2.318-11.774 315.873 315.873 0 0 1 -54.207 5.8 6 6 0 0 0 .124 12z"/></svg>