<?xml version="1.0" encoding="iso-8859-1"?>
<!-- Generator: Adobe Illustrator 19.0.0, SVG Export Plug-In . SVG Version: 6.00 Build 0)  -->
<svg version="1.1" id="Layer_1" xmlns="http://www.w3.org/2000/svg" xmlns:xlink="http://www.w3.org/1999/xlink" x="0px" y="0px"
	 viewBox="0 0 512 512" style="enable-background:new 0 0 512 512;" xml:space="preserve">
<g>
	<g>
		<path fill="#fff" d="M325.581,111.282h46.654c9.995,0,18.128-8.132,18.128-18.128V18.187c0-9.996-8.132-18.128-18.128-18.128H308.17
			C307.556,0.033,306.489,0,304.994,0c-12.088,0-54.123,2.385-87.472,33.064c-36.401,33.493-32.918,73.557-31.386,83.435v48.84
			h-46.371c-9.995,0-18.128,8.132-18.128,18.128v80.629c0,9.997,8.132,18.13,18.128,18.13h43.688v211.647
			c0,9.995,8.132,18.128,18.128,18.128h91.368c9.995,0,18.128-8.133,18.128-18.128V283.271h51.749
			c9.214,0,16.956-6.903,18.009-16.056l9.409-81.672c0.591-5.131-1.04-10.285-4.477-14.14c-3.437-3.853-8.368-6.063-13.53-6.063
			h-61.156v-40.997C311.079,115.872,313.39,111.282,325.581,111.282z M300.881,185.739h68.807l-8.886,77.134h-59.924
			c-5.632,0-10.199,4.566-10.199,10.199v218.53H203.85V272.026c0-5.633-4.567-10.199-10.199-10.199h-51.617v-76.09h54.301
			c5.632,0,10.199-4.566,10.199-10.199V115.67c0-0.585-0.05-1.17-0.15-1.747c-1.075-6.175-4.918-38.365,24.95-65.847
			c27.915-25.681,63.439-27.677,73.661-27.677c1.433,0,2.286,0.038,2.442,0.046c0.168,0.008,0.336,0.012,0.504,0.012h62.026v70.428
			h-44.385c-21.854,0-34.901,12.508-34.901,33.458v51.196C290.681,181.173,295.249,185.739,300.881,185.739z"/>
	</g>
</g>
<g>
	<g>
		<path fill="#fff" d="M224.382,343.713c-5.632,0-10.199,4.566-10.199,10.199v5.1c0,5.633,4.567,10.199,10.199,10.199
			c5.632,0,10.199-4.566,10.199-10.199v-5.1C234.581,348.279,230.013,343.713,224.382,343.713z"/>
	</g>
</g>
<g>
	<g>
		<path fill="#fff" d="M224.382,381.45c-5.632,0-10.199,4.566-10.199,10.199v77.514c0,5.633,4.567,10.199,10.199,10.199
			c5.632,0,10.199-4.566,10.199-10.199v-77.514C234.581,386.016,230.013,381.45,224.382,381.45z"/>
	</g>
</g>
</svg>
