<?xml version="1.0" encoding="iso-8859-1"?>
<!-- Generator: Adobe Illustrator 19.0.0, SVG Export Plug-In . SVG Version: 6.00 Build 0)  -->
<svg version="1.1" id="Layer_1" xmlns="http://www.w3.org/2000/svg" xmlns:xlink="http://www.w3.org/1999/xlink" x="0px" y="0px"
	 viewBox="0 0 512 512" style="enable-background:new 0 0 512 512;" xml:space="preserve">
<g>
	<g>
		<path fill="#fff" d="M124.631,158.153h-98.69c-9.995,0-18.128,8.132-18.128,18.128v317.048c0,9.995,8.132,18.128,18.128,18.128h98.69
			c9.996,0,18.128-8.132,18.128-18.129V176.281C142.759,166.286,134.627,158.153,124.631,158.153z M122.362,491.059h-94.15V178.551
			h94.15V491.059z"/>
	</g>
</g>
<g>
	<g>
		<path fill="#fff" d="M128.524,22.601C114.293,8.376,95.399,0.54,75.322,0.54C33.789,0.54,0,34.298,0,75.791
			C0,117.3,33.789,151.07,75.322,151.07c41.504,0,75.27-33.77,75.27-75.278C150.593,55.719,142.756,36.829,128.524,22.601z
			 M75.322,130.671c-30.284,0-54.924-24.62-54.924-54.88c0-30.246,24.639-54.852,54.924-54.852c14.63,0,28.403,5.714,38.78,16.089
			c10.377,10.374,16.091,24.141,16.091,38.763C130.194,106.052,105.579,130.671,75.322,130.671z"/>
	</g>
</g>
<g>
	<g>
		<path fill="#fff" d="M489.199,205.292c-21.531-36.508-59.732-55.019-113.542-55.019c-34.667,0-59.857,11.83-76.618,24.035
			c-0.986-9.071-8.693-16.156-18.022-16.156h-94.513c-9.995,0-18.128,8.132-18.128,18.128v317.048
			c0,9.995,8.132,18.128,18.128,18.128h98.474c9.996,0,18.128-8.132,18.128-18.128V336.465c0-53.175,14.411-63.254,41.007-63.254
			c26.002,0,33.121,14.181,33.121,65.974v154.148c0,9.996,8.132,18.128,18.128,18.128h98.51c9.995,0,18.128-8.132,18.128-18.128
			V319.425C512,284.287,509.408,239.561,489.199,205.292z M491.602,491.061h-93.969V339.184c0-20.661-0.574-42.18-7.427-58.268
			c-7.943-18.648-23.451-28.104-46.092-28.104c-54.11,0-61.405,42.287-61.405,83.653v154.594h-93.934V178.551h89.972v18.322
			c0,4.204,2.58,7.978,6.499,9.504c3.919,1.527,8.371,0.491,11.214-2.607c11.347-12.36,36.724-33.098,79.197-33.098
			c101.899,0,115.946,71.494,115.946,148.753V491.061z"/>
	</g>
</g>
<g>
	<g>
		<path fill="#fff" d="M48.956,364.112c-5.633,0-10.199,4.566-10.199,10.199v94.853c0,5.633,4.566,10.199,10.199,10.199
			s10.199-4.566,10.199-10.199v-94.853C59.155,368.678,54.589,364.112,48.956,364.112z"/>
	</g>
</g>
<g>
	<g>
		<path fill="#fff" d="M48.956,321.275c-5.633,0-10.199,4.566-10.199,10.199v9.179c0,5.633,4.566,10.199,10.199,10.199
			s10.199-4.566,10.199-10.199v-9.179C59.155,325.841,54.589,321.275,48.956,321.275z"/>
	</g>
</g>
</svg>
