<?xml version="1.0" encoding="UTF-8"?>
<!DOCTYPE svg PUBLIC "-//W3C//DTD SVG 1.1//EN" "http://www.w3.org/Graphics/SVG/1.1/DTD/svg11.dtd">
<!-- Creator: CorelDRAW 2020 (64-Bit) -->
<svg xmlns="http://www.w3.org/2000/svg" xml:space="preserve" width="14.8318mm" height="14.5507mm" version="1.1" style="shape-rendering:geometricPrecision; text-rendering:geometricPrecision; image-rendering:optimizeQuality; fill-rule:evenodd; clip-rule:evenodd"
viewBox="0 0 31.74 31.14"
 xmlns:xlink="http://www.w3.org/1999/xlink"
 xmlns:xodm="http://www.corel.com/coreldraw/odm/2003">
 <defs>
  <style type="text/css">
   <![CDATA[
    .fil1 {fill:black}
    .fil2 {fill:#EDED00}
    .fil0 {fill:white}
   ]]>
  </style>
 </defs>
 <g id="Слой_x0020_1">
  <metadata id="CorelCorpID_0Corel-Layer"/>
  <g id="_2195060144">
   <path class="fil0" d="M12.24 17.57c0.58,0.11 3.32,1.06 3.58,1.06 0.3,-0.01 3.27,-1.05 3.55,-1.04l0 3.54c-0.32,0.23 -1.15,0.45 -1.58,0.58 -1.98,0.59 -3.79,0.16 -5.55,-0.55l-0 -3.59zm2.67 -7.65c2.04,-0.19 3.72,0.22 5.41,1.18 0.57,0.32 1.45,1.01 1.89,1.48 0.14,0.15 0.37,0.4 0.5,0.59 1.05,1.43 1.74,2.7 1.94,4.7 0.36,3.5 -1.46,7.08 -4.54,8.71 -1.04,0.55 -2,0.92 -3.35,1.07 -5.15,0.56 -9.36,-3.34 -9.79,-7.92 -0.5,-5.2 3.3,-9.36 7.93,-9.8zm-4.89 -4.01c1.42,0.12 1.67,-0.07 3.3,0.53 0.46,0.17 0.91,0.41 1.25,0.63 0.47,0.31 0.94,0.82 1.04,0.86 -0.56,-1.41 -1.43,-2.31 -2.88,-2.76 -0.5,-0.16 -1.01,-0.27 -1.57,-0.31l-0 -3.88c-0.03,-0.01 -0.05,-0.03 -0.06,-0.01 -0.01,0.01 -0.03,-0.01 -0.04,-0.01 -0.23,-0.05 -0.81,-0.02 -1.04,-0.01l-0 4.97zm6.11 0.36c0.14,-0.07 0.46,-0.47 0.74,-0.72 0.27,-0.24 0.53,-0.45 0.85,-0.64 0.87,-0.53 1.29,-0.48 2.33,-0.66l0 -4.23c-0.76,-0.08 -1.52,0.16 -2.12,0.39 -0.55,0.21 -1.1,0.66 -1.42,1.11 -0.17,0.25 -0.37,0.52 -0.39,0.86l0.01 3.89zm-4.41 -6.21l-0.02 4.21c1.35,0.05 2.34,0.48 3.2,1.29 0.12,0.12 0.24,0.23 0.37,0.37 0.11,0.12 0.24,0.29 0.35,0.37 0.06,-0.66 0.01,-2.83 0.01,-3.77 0,-1.14 -1.45,-2.16 -2.7,-2.4 -0.44,-0.08 -0.82,-0.15 -1.12,-0.1l-0.1 0.02zm8.87 4.78c-0.82,0.23 -1.5,0.09 -2.81,0.92 -0.64,0.41 -1.48,1.44 -1.6,2.14 0.43,-0.29 0.81,-0.97 2.31,-1.49 2.01,-0.69 2.5,-0.34 3.24,-0.52l0 -4.93 -1.13 -0.04 -0.01 3.91zm-5.61 4.02c-2.67,0.32 -4.85,1.33 -6.61,3.34 -3.63,4.15 -3.23,10.51 0.87,14.05 2.05,1.77 4.6,2.72 7.44,2.46 1.58,-0.14 2.61,-0.54 3.84,-1.14 1.1,-0.53 1.99,-1.41 2.77,-2.2 1.62,-1.65 2.72,-4.88 2.44,-7.41 -0.33,-2.95 -1.55,-5.07 -3.3,-6.62 -1.6,-1.41 -4.41,-2.84 -7.45,-2.48zm-4.23 7.93c0.38,0.08 0.3,0.11 0.29,0.53 -0,0.25 -0,0.5 -0,0.75 0,0.28 0.07,1.31 0.05,1.36 -0.61,0.22 -0.34,-0.19 -0.34,-1.01 0,-0.54 0.01,-1.09 0,-1.62zm-1.34 -0.61c0.24,-0.13 6.36,-1.98 6.43,-1.98 0.14,0 6.24,1.89 6.41,1.98l-0.21 0.1c-0.06,0.02 -0.14,0.04 -0.19,0.06 -0.14,0.04 -0.27,0.08 -0.42,0.13 -0.28,0.08 -0.52,0.16 -0.8,0.24 -0.8,0.23 -4.62,1.46 -4.84,1.45 -0.23,-0.02 -6.34,-1.93 -6.39,-1.97zm-1.74 3.32c0.14,1.69 0.78,3.13 1.74,4.38 0.16,0.21 0.3,0.37 0.49,0.55 0.17,0.15 0.31,0.35 0.49,0.5 1.5,1.26 3.4,2.2 6.11,2.02 1.61,-0.11 3.22,-0.82 4.39,-1.75 2.14,-1.7 3.26,-4.32 3.07,-7.15 -0.29,-4.25 -4.18,-7.86 -8.85,-7.46 -1.62,0.14 -3.21,0.79 -4.4,1.75l-1.04 0.99c-0.14,0.16 -0.3,0.38 -0.46,0.59 -0.16,0.21 -0.27,0.4 -0.41,0.63 -0.88,1.38 -1.28,3.24 -1.14,4.94z"/>
   <g>
    <path class="fil1" d="M12.25 21.16c1.77,0.71 3.57,1.14 5.55,0.55 0.43,-0.13 1.26,-0.35 1.58,-0.58l-0 -3.54c-0.29,-0.02 -3.26,1.03 -3.55,1.04 -0.26,0.01 -3.01,-0.95 -3.58,-1.06l0 3.59zm-1.5 -4.38c0.01,0.54 0,1.09 -0,1.62 -0,0.82 -0.26,1.23 0.34,1.01 0.01,-0.05 -0.05,-1.08 -0.05,-1.36 0,-0.25 -0,-0.5 0,-0.75 0.01,-0.42 0.09,-0.45 -0.29,-0.53zm-1.34 -0.61c0.05,0.04 6.15,1.96 6.39,1.97 0.22,0.01 4.04,-1.21 4.84,-1.45 0.28,-0.08 0.52,-0.16 0.8,-0.24 0.15,-0.04 0.27,-0.09 0.42,-0.13 0.06,-0.02 0.13,-0.04 0.19,-0.06l0.21 -0.1c-0.17,-0.09 -6.27,-1.98 -6.41,-1.98 -0.07,-0 -6.18,1.85 -6.43,1.98z"/>
    <path class="fil2" d="M26.41 9.68c0.99,-0.52 0.41,-1.41 0.35,-2.58 -0.39,0.14 -0.85,0.63 -0.98,1.11 -0.19,0.72 0.22,1.26 0.63,1.47zm1.28 8.53c0.11,0.19 0.24,0.27 0.63,0.98 0.19,0.35 0.48,0.59 1.04,0.49 0.2,-1.04 -0.68,-1.7 -1.67,-1.47zm-5.2 -9.24c0.49,-0.01 0.89,0.09 1.29,0.08 0.39,-0.01 0.74,-0.31 0.83,-0.56 -0.2,-0.28 -0.66,-0.63 -1.22,-0.43 -0.37,0.13 -0.8,0.57 -0.9,0.92zm3.64 4.05c0.23,0.08 0.33,0.09 0.54,0.21 0.71,0.39 0.82,0.73 1.66,0.26 -0.07,-0.67 -0.83,-1.15 -1.66,-0.82 -0.28,0.11 -0.38,0.26 -0.54,0.35zm-2.24 -2.87c0.88,-0 1.7,0.58 2.22,-0.18 -0.11,-0.37 -0.64,-0.72 -1.18,-0.62 -0.39,0.07 -0.98,0.5 -1.04,0.8zm0.97 18.71c0.93,-0.59 0.58,-1.82 -0.37,-2.17 0.06,1.02 -0.55,1.61 0.37,2.17zm2.68 -3.22c0.24,-0.41 0.43,-0.79 0.1,-1.33 -0.17,-0.29 -0.6,-0.64 -1.12,-0.63 0.28,0.48 0.1,0.73 0.22,1.24 0.08,0.35 0.45,0.68 0.8,0.72zm1.52 -3.94c0.33,-1.12 -0.53,-1.75 -1.59,-1.63 0.04,0.12 0.19,0.27 0.29,0.45 0.26,0.48 0.4,1.29 1.3,1.18zm-0.63 2.05c0.17,-0.52 0.25,-0.88 -0.08,-1.34 -0.2,-0.28 -0.7,-0.59 -1.23,-0.52 0.46,0.64 0.26,1.85 1.32,1.86zm-1.02 -7.29c0.72,0.53 0.82,0.94 1.27,1.1 0.22,0.08 0.52,0.07 0.72,-0.05 -0,-0.54 -0.23,-0.9 -0.6,-1.11 -0.37,-0.21 -1.08,-0.21 -1.39,0.06zm-1.21 10.91c0.79,-0.51 0.71,-1.7 -0.44,-2.17 0.02,0.6 -0.11,0.83 -0.12,1.28 -0,0.42 0.31,0.76 0.56,0.89zm-1.04 -15.86c0.49,0.08 0.72,0.23 1.14,0.39 0.44,0.17 0.93,0.05 1.14,-0.26 -0.13,-0.39 -0.55,-0.76 -1.04,-0.78 -0.53,-0.02 -1.09,0.35 -1.24,0.64zm-2.04 18.64c0.37,-0.06 0.77,-0.61 0.75,-1.14 -0.02,-0.62 -0.41,-0.87 -0.73,-1.11 -0.17,1.3 -0.81,1.29 -0.03,2.25zm3.78 -15.53c0.56,0.37 0.35,0.17 0.89,0.69 0.4,0.39 0.65,0.33 1.19,0.15 0.01,-1.3 -1.55,-1.39 -2.08,-0.84zm1.67 -1.37c0.52,-0.03 0.82,-0.33 0.92,-0.8 0.05,-0.23 0.06,-0.49 0.1,-0.74 0.05,-0.31 0.12,-0.46 0.18,-0.71 -0.82,0.13 -1.5,0.67 -1.47,1.49 0.01,0.37 0.16,0.51 0.26,0.76zm0.86 8.51c0.49,0.36 1.04,0.01 1.3,-0.29 0.19,-0.22 0.46,-0.6 0.67,-0.77 0.11,-0.09 0.18,-0.13 0.26,-0.22 -1.38,-0.5 -2.36,0.2 -2.22,1.28zm-6.01 8.73c0.58,1.13 1.37,0.33 2.48,0.53 -0.06,-0.42 -0.6,-0.93 -1,-1.07 -0.65,-0.22 -1.34,0.12 -1.48,0.54zm4.49 -4.71c0.36,0.38 0.88,0.39 1.33,0.11 0.2,-0.12 0.33,-0.22 0.55,-0.35 0.18,-0.1 0.52,-0.21 0.63,-0.3 -0.38,-0.26 -0.8,-0.64 -1.5,-0.5 -0.51,0.1 -0.95,0.5 -1.01,1.05zm1.79 -8.36c1.2,0.12 1.16,-0.86 1.59,-1.5 0.12,-0.17 0.13,-0.14 0.21,-0.34 -1.18,-0.16 -2.28,0.58 -1.8,1.84zm-0.86 6.46c1.04,0.4 1.14,-0.05 1.81,-0.61 0.16,-0.13 0.37,-0.23 0.56,-0.37 -0.81,-0.73 -2.44,-0.3 -2.37,0.98zm-3.67 5.22c0.4,0.98 1.56,0.36 2.53,0.31 -0.15,-0.42 -0.65,-0.84 -1.14,-0.96 -0.67,-0.16 -1.17,0.26 -1.39,0.65zm1.43 -1.43c1.05,0.81 1.1,0.11 2.53,-0.25 -0.3,-0.79 -2.29,-1.13 -2.53,0.25zm5.13 -9.62c-0.72,-0.27 -1.65,-0.06 -1.97,0.62 -0.57,1.21 0.59,1.32 1.17,0.47 0.26,-0.38 0.46,-0.78 0.8,-1.09zm-2.46 -2.73c1.06,-0 1.06,-0.74 1.31,-1.45 0.1,-0.27 0.22,-0.45 0.28,-0.64 -0.65,-0.01 -1.11,0.19 -1.42,0.54 -0.47,0.52 -0.36,0.9 -0.17,1.54zm-4.39 -9.77c-0.45,0.05 -1.47,1.62 -0.31,2.45 0.54,0.39 0.81,-0.47 0.73,-0.93 -0.1,-0.54 -0.38,-0.83 -0.42,-1.52zm2.76 5.82c1.07,-0.22 0.65,-1.5 0.77,-2.49 -0.5,0.11 -0.96,0.55 -1.13,0.95 -0.29,0.68 0.02,1.21 0.37,1.54z"/>
    <path class="fil2" d="M4.07 11.4c0.37,-0.3 0.66,-0.8 0.4,-1.48 -0.16,-0.43 -0.64,-0.92 -1.15,-1 0.1,1.08 -0.29,2.23 0.75,2.48z"/>
    <path class="fil2" d="M2.43 15.35c0.71,-1.02 -0.41,-2.19 -1.57,-2.07 0.08,0.19 0.18,0.31 0.27,0.58 0.24,0.71 0.27,1.52 1.3,1.49z"/>
    <path class="fil2" d="M5.36 9.67c1.09,-0.65 0.62,-2.19 -0.39,-2.58 -0.01,0.66 -0.14,0.92 -0.21,1.49 -0.06,0.55 0.23,0.98 0.6,1.08z"/>
    <path class="fil2" d="M6.86 5.57c-0.06,0.67 -0.31,0.96 -0.42,1.51 -0.1,0.5 0.21,1.34 0.71,0.96 0.9,-0.68 0.56,-2.02 -0.29,-2.47z"/>
    <path class="fil2" d="M0.54 22.93c0.4,0.33 0.36,0.19 1.03,0.82 0.13,0.12 0.33,0.28 0.58,0.32 0.26,0.04 0.55,-0.02 0.75,-0.2 0.01,-1.27 -1.55,-1.66 -2.36,-0.94z"/>
    <path class="fil2" d="M5.82 31.05c0.87,-0.12 2.22,0.53 2.49,-0.57 -0.86,-1.2 -2.32,-0.23 -2.49,0.57z"/>
    <path class="fil2" d="M0.29 15.61l0.27 0.54c0.4,0.78 0.41,1.36 1.46,1.3 0.58,-1.06 -0.66,-2.12 -1.73,-1.84z"/>
    <path class="fil2" d="M4.04 29.45c0.98,-0.01 2.07,0.72 2.52,-0.31 -0.21,-0.42 -0.75,-0.81 -1.4,-0.65 -0.42,0.1 -1.1,0.62 -1.11,0.97z"/>
    <path class="fil2" d="M1.31 25.29c1.16,0.41 1.66,1.32 2.51,0.52 -0.05,-0.54 -0.51,-0.96 -1.03,-1.05 -0.71,-0.12 -1.13,0.27 -1.49,0.53z"/>
    <path class="fil2" d="M2.59 27.44c0.18,0.08 0.45,0.12 0.66,0.22 0.24,0.11 0.37,0.19 0.61,0.29 0.53,0.22 1.03,0.1 1.26,-0.31 -0.48,-1.42 -2.2,-0.86 -2.53,-0.2z"/>
    <path class="fil2" d="M-0 18.06c0.11,0.19 0.28,0.31 0.43,0.52 0.41,0.59 0.57,1.32 1.63,1.06 0.08,-0.66 -0.07,-1.09 -0.5,-1.4 -0.52,-0.37 -0.94,-0.27 -1.56,-0.18z"/>
    <path class="fil2" d="M0.07 20.53c0.47,0.35 0.56,0.54 0.92,0.96 0.29,0.34 0.81,0.65 1.3,0.3 0.14,-1.53 -1.57,-1.68 -2.23,-1.26z"/>
    <path class="fil2" d="M3.12 13.26c0.38,-0.42 0.39,-1.02 0.1,-1.5 -0.22,-0.35 -0.68,-0.69 -1.28,-0.74 0.31,0.84 0.1,2.24 1.18,2.24z"/>
    <path class="fil2" d="M2.75 15.47c0.85,0.42 1.11,-0.1 1.62,-0.53 0.16,-0.13 0.28,-0.17 0.47,-0.3 -0.5,-0.53 -2.08,-0.48 -2.09,0.83z"/>
    <path class="fil2" d="M8.58 30.17c0.9,-0.65 -0.02,-1.39 0.02,-2.23 -0.36,0.13 -0.74,0.56 -0.75,1.1 -0.01,0.5 0.39,1.06 0.73,1.13z"/>
    <path class="fil2" d="M4.3 11.73c0.37,0.18 0.56,0.4 1.12,0.19 0.41,-0.15 0.65,-0.31 1.14,-0.4 -0.48,-0.9 -2.11,-0.83 -2.26,0.2z"/>
    <path class="fil2" d="M3.31 23.78c1.03,-0.16 0.77,-0.79 1.3,-1.89 -0.53,0 -0.96,0.2 -1.21,0.52 -0.37,0.47 -0.26,0.84 -0.09,1.37z"/>
    <path class="fil2" d="M4.25 20.08c-0.53,-0.05 -0.97,0.05 -1.27,0.32 -0.41,0.37 -0.74,1.74 0.31,1.2 0.36,-0.19 0.48,-0.67 0.66,-1.02 0.08,-0.16 0.28,-0.38 0.3,-0.5z"/>
    <path class="fil2" d="M4.2 25.66c0.37,-0.09 0.7,-0.35 0.79,-0.72 0.13,-0.51 0,-0.7 0.21,-1.27 -1.08,0.12 -1.63,1.06 -1,1.99z"/>
    <path class="fil2" d="M6.85 28.86c0.28,-0.09 0.56,-0.49 0.56,-0.87 -0,-0.48 -0.23,-0.63 -0.16,-1.29 -0.87,0.25 -1.34,1.54 -0.4,2.16z"/>
    <path class="fil2" d="M5.57 27.4c0.21,-0.24 0.5,-0.38 0.52,-0.85 0.02,-0.47 -0.18,-0.68 -0.12,-1.3 -0.41,0.11 -0.81,0.5 -0.92,0.91 -0.15,0.56 0.15,1.09 0.51,1.25z"/>
    <path class="fil2" d="M2.34 17.55c1.17,0.3 1.24,-0.71 1.98,-1.06 -0.27,-0.3 -1.05,-0.27 -1.4,-0.07 -0.32,0.18 -0.64,0.6 -0.58,1.13z"/>
    <path class="fil2" d="M5.62 9.98c0.62,0.74 1.3,0.22 2.23,0.16 -0.14,-0.31 -0.58,-0.72 -1.06,-0.79 -0.56,-0.09 -1.05,0.27 -1.17,0.63z"/>
    <path class="fil2" d="M3.43 13.5c0.78,0.47 0.97,0.1 1.62,-0.26 0.17,-0.09 0.41,-0.15 0.55,-0.24 -1.27,-0.99 -2.21,-0.08 -2.18,0.49z"/>
    <path class="fil2" d="M7.12 8.49c0.13,0.28 0.4,0.54 0.81,0.56 0.24,0.01 0.42,-0.04 0.65,-0.07 0.24,-0.03 0.45,0 0.68,-0.01 -0.27,-0.57 -0.91,-1.17 -1.6,-0.9l-0.42 0.28c-0.1,0.1 -0.06,0.06 -0.12,0.15z"/>
    <path class="fil2" d="M2.39 19.69c0.61,0.01 0.8,-0.1 1.04,-0.53 0.47,-0.84 0.37,-0.54 0.63,-0.94 -1.02,-0.3 -1.88,0.45 -1.67,1.47z"/>
   </g>
  </g>
 </g>
</svg>
