<?xml version="1.0" encoding="UTF-8"?>
<!DOCTYPE svg PUBLIC "-//W3C//DTD SVG 1.1//EN" "http://www.w3.org/Graphics/SVG/1.1/DTD/svg11.dtd">
<!-- Creator: CorelDRAW 2020 (64-Bit) -->
<svg xmlns="http://www.w3.org/2000/svg" xml:space="preserve" width="83.1188mm" height="6.2565mm" version="1.1" style="shape-rendering:geometricPrecision; text-rendering:geometricPrecision; image-rendering:optimizeQuality; fill-rule:evenodd; clip-rule:evenodd"
viewBox="0 0 1051.58 79.15"
 xmlns:xlink="http://www.w3.org/1999/xlink"
 xmlns:xodm="http://www.corel.com/coreldraw/odm/2003">
 <defs>
  <style type="text/css">
   <![CDATA[
    .fil0 {fill:#EDED00}
   ]]>
  </style>
 </defs>
 <g id="Слой_x0020_1">
  <metadata id="CorelCorpID_0Corel-Layer"/>
  <g id="_2195428592">
   <path class="fil0" d="M95.3 28.21l-1.15 -26.8 -19.64 0.41c-1.16,3.8 -1.16,71.75 -0.01,75.82l20.02 -0.12 0.86 -19.11 8.97 -11.43 13.34 30.26 23.4 -0.08c-1.1,-4.46 -9.31,-19.25 -11.9,-24.16 -2.56,-4.86 -10.21,-18.55 -11.28,-23.2 4.05,-4.52 19.92,-23.08 21.7,-27.97 -28.7,0.03 -23.59,-2.15 -29.87,6.63l-14.46 19.74zm-67.49 19.97c-0.35,-3.94 1.64,-9.27 2.59,-13.1l2.3 -9.19c1.5,-3.47 0.48,-1.26 1.59,-2.56l6.22 24.75 -12.71 0.1zm-5.1 16.45l22.13 0.18 3.37 12.43 20.26 -0.1 -23.53 -75.27 -21.71 0.21 -23.23 75.18 19.77 -0.19 2.95 -12.44zm219.45 -41.46c1,1.24 0.54,0.2 1.57,2.59l5.47 22.28 -12.72 0.16c-0.03,-6.15 4.4,-18.57 5.69,-25.03zm-10.43 41.45l22 0.19 2.95 12.41 20.15 0.07c-1.2,-9.47 -8.43,-28.7 -11.47,-38.33 -2.32,-7.34 -8.97,-32.51 -12.25,-37.1l-20.49 0.22c-1.74,2.46 -23,69.25 -23.63,75.23l19.55 -0.17 3.19 -12.51zm71.72 -47.75c8.05,-0.21 17.37,-1.72 17.39,7.53 0.03,8.99 -9.8,8.35 -17.81,7.92l0.41 -15.45zm23.51 26.9c19.13,-7.99 15.24,-29.83 7.91,-36.95 -5.74,-5.57 -14.23,-4.96 -23.86,-4.96 -7.57,0 -20.52,-0.75 -27.46,0.38l0.01 74.98 19.53 -0.03 0.07 -30.29c8.38,-0.14 9.33,6.12 12.5,12.95 2.24,4.8 5.91,12.14 7.68,17.4l21.85 -0.04c-1.11,-5.56 -5.44,-13.55 -7.62,-18.78 -2.69,-6.47 -4.5,-9.1 -9.14,-13.19 -0.99,-0.87 -0.74,-0.59 -1.48,-1.46zm-158.98 1.58c8.16,-0.35 18.67,-1.74 18.69,7.56 0.02,9.78 -10.34,8.29 -19.15,7.92l0.46 -15.48zm0 -28.5c7.22,-0.33 16.1,-1.42 16.28,6.72 0.2,8.96 -8.38,7.73 -16.77,7.22l0.48 -13.95zm26.35 20.07c4.58,-4.91 8.86,-5.12 9.01,-16.05 0.12,-7.88 -3.24,-13.71 -8.39,-16.67 -6.72,-3.86 -37.2,-2.84 -46.99,-2.18l0.05 75.1c12.47,0.8 43.13,1.89 51.16,-4.21 7.64,-5.81 13.56,-28.2 -4.84,-35.99z"/>
   <path class="fil0" d="M934.91 38.04c3.27,2.36 19.88,33.49 23.31,39.44l18.63 -0.05 -0.15 -75.58 -18.41 0.36 -0.18 39.26c-2.84,-2.31 -4.8,-6.84 -6.59,-10.01 -4.47,-7.94 -13.82,-22.89 -16.65,-29.57l-18.63 0.08 0.09 75.53 18.45 -0.26 0.13 -39.22zm-52.21 39.37l19.7 -0.31 -0.13 -75.2 -19.68 0.38 0.11 75.14zm-118.09 0.1l49.84 -0.28 -0.03 -18.37 -30.42 -0.04 0.01 -56.88 -19.64 -0.03 0.24 75.59zm49.45 -57.13l19.83 0.37 0.29 56.73 19.46 -0.27 0.17 -56.7 19.7 0.01 -0.05 -18.67 -59.44 0.41 0.05 18.12zm-360.39 26.69c-1.96,7.92 -4.65,15.24 -15.03,13.57 -8.23,-1.33 -9.45,-10.61 -9.63,-18.68 -0.69,-30.76 19.51,-28.12 23.74,-13.68l17.08 -4.05c-1.42,-16.61 -18.89,-28.38 -38.61,-22.57 -31.38,9.26 -29.29,72.62 3.81,76.72 21.2,2.62 33.5,-7.49 35.65,-25.78l-17.01 -5.52zm170.24 5.54c-0.73,6.76 3.15,15.43 7.14,19.53 4.73,4.86 11.34,6.37 19.57,6.58 17.01,0.44 27.94,-6.58 29.92,-21.85 4.66,-36.06 -46.47,-24.68 -35.4,-39.89 0.6,-0.83 10.16,-8.08 15.3,7.07l18.1 -1.4c-0.82,-17.11 -12.19,-23.15 -29.68,-22.23 -14.69,0.76 -26.17,11.11 -22.61,27.54 3.44,15.84 21.72,16.72 30.61,21.1 7.8,3.84 5.82,13.9 -2.68,14.55 -10.67,0.83 -9.62,-7.12 -12.49,-12.69l-17.79 1.67zm66.98 -50.52c-0.13,37.67 -8.24,76.02 30.11,76.64 38.67,0.63 31.1,-39.29 30.59,-76.93l-19.53 0.5c-0.41,11.01 0.03,23.13 0.04,34.29 0,11.28 1.73,24.47 -11.09,24.23 -12,-0.22 -10.41,-12.94 -10.41,-24.23 0,-11.54 -0.11,-23.13 -0.01,-34.73l-19.69 0.24zm343.58 55.22c-31.96,21.45 -33.33,-30.96 -19.74,-38.81 8.07,-4.66 13.89,-0.19 17.08,7.29 4.34,-0.36 15.27,-2.31 18.55,-4.35 -2,-18.95 -20.71,-23.48 -37.25,-20.51 -15.67,2.81 -24.48,16.08 -25.82,33.83 -2.42,32.24 16.67,50.21 45.4,42.69 9.14,-2.39 12.71,-6.72 18.9,-10.26l-0.05 -32.57 -30.18 0.28 -0.07 15.28 12.98 0.21 0.19 6.91zm-536.22 -10.04c-5.17,-34.16 22.2,-37.4 25.52,-14.97 5.11,34.54 -22.28,36.36 -25.52,14.97zm44.99 1.78c3.25,-22.76 -3.69,-42.69 -23.12,-47.7 -49.2,-12.66 -55.51,67.32 -18.53,76.42 24.24,5.95 38.69,-7.96 41.65,-28.72zm28.89 -11.03c3.71,2.66 21.4,35.91 23.38,39.45l18.64 -0.19 -0.08 -75.43 -18.52 0.16 -0.2 40.13c-2.93,-3.05 -21.62,-36.91 -23.16,-40.29l-18.63 0.2 0.14 75.4 18.31 -0.29 0.11 -39.15z"/>
  </g>
 </g>
</svg>
